<?xml version="1.0" encoding="UTF-8"?>
<svg width="22px" height="14px" viewBox="0 0 22 14" version="1.1" xmlns="http://www.w3.org/2000/svg" xmlns:xlink="http://www.w3.org/1999/xlink">
    <title>Combined Shape</title>
    <g id="Page-1" stroke="none" stroke-width="1" fill="none" fill-rule="evenodd">
        <g id="Claim---Enter-password" transform="translate(-853.000000, -574.000000)" fill="#000000" fill-rule="nonzero">
            <g id="Group-2" transform="translate(463.000000, 489.000000)">
                <g id="Group" transform="translate(390.400000, 85.400000)">
                    <path d="M15.0636847,0.109711493 L15.1460908,0.179957338 L21.0284437,6.17995734 C21.1163822,6.26965459 21.1705132,6.38006361 21.1908368,6.49525934 C21.1909883,6.50468784 21.1926651,6.51471215 21.1940902,6.52481733 C21.197688,6.54397435 21.1991397,6.56271579 21.1997158,6.58147907 C21.1997762,6.59028178 21.2,6.59979484 21.2,6.60936018 L21.1988321,6.6375281 C21.1983525,6.64522575 21.1977252,6.65291594 21.1969501,6.66059405 L21.2,6.60936018 C21.2,6.80108189 21.1100778,6.97180113 20.9701083,7.0816429 L15.1460908,13.020043 C14.9141075,13.256666 14.5342271,13.2604271 14.2976042,13.0284439 C14.0872727,12.8222365 14.0609308,12.4991722 14.2206029,12.2637381 L14.2892034,12.1799573 L19.161,7.209 L0.6,7.20936018 C0.26862915,7.20936018 -1.84741111e-13,6.94073103 -1.84741111e-13,6.60936018 C-1.84741111e-13,6.31112642 0.217589612,6.06371343 0.502676883,6.01721317 L0.6,6.00936018 L19.179,6.009 L14.2892034,1.02004303 C14.082996,0.809711544 14.0630559,0.486188989 14.2273584,0.253962516 L14.2976042,0.171556481 C14.5079357,-0.0346508597 14.8314583,-0.0545909806 15.0636847,0.109711493 Z" id="Combined-Shape"></path>
                </g>
            </g>
        </g>
    </g>
</svg>